<svg xmlns="http://www.w3.org/2000/svg" viewBox="0 0 146 56"><defs><style>.cls-1{fill:#231f20;}</style></defs><g id="Layer_2" data-name="Layer 2"><g id="Layer_1-2" data-name="Layer 1"><path class="cls-1" d="M1,29H145a1,1,0,0,0,0-2H1a1,1,0,0,0,0,2Z"/><path class="cls-1" d="M145,29a1,1,0,0,0,.71-.29,1,1,0,0,0,0-1.42l-27-27a1,1,0,1,0-1.42,1.42l27,27A1,1,0,0,0,145,29Z"/><path class="cls-1" d="M118,56a1,1,0,0,0,.71-.29l27-27a1,1,0,1,0-1.42-1.42l-27,27a1,1,0,0,0,0,1.42A1,1,0,0,0,118,56Z"/></g></g></svg>